<svg width="1024" height="1024" viewBox="0 0 1024 1024" fill="none" xmlns="http://www.w3.org/2000/svg">
  <!-- Background -->
  <rect width="1024" height="1024" fill="#000000"/>
  
  <!-- Main Logo Background -->
  <rect x="128" y="256" width="768" height="512" rx="32" fill="#FFFFFF"/>
  
  <!-- Scissors Icon (Left) -->
  <g transform="translate(200, 400)">
    <!-- Scissors Handle 1 -->
    <circle cx="40" cy="40" r="20" fill="#000000"/>
    <circle cx="40" cy="40" r="12" fill="#FFFFFF"/>
    
    <!-- Scissors Handle 2 -->
    <circle cx="40" cy="120" r="20" fill="#000000"/>
    <circle cx="40" cy="120" r="12" fill="#FFFFFF"/>
    
    <!-- Scissors Blades -->
    <path d="M60 50 L140 80 L140 70 L70 45 Z" fill="#000000"/>
    <path d="M60 110 L140 80 L140 90 L70 115 Z" fill="#000000"/>
    
    <!-- Scissors Pivot -->
    <circle cx="140" cy="80" r="8" fill="#000000"/>
  </g>
  
  <!-- Text "LA BARBIERE" -->
  <g transform="translate(350, 450)">
    <!-- LA -->
    <text x="0" y="0" font-family="serif" font-size="48" font-weight="bold" fill="#000000">LA</text>
    
    <!-- BARBIERE -->
    <text x="0" y="60" font-family="serif" font-size="36" font-weight="600" fill="#000000">BARBIERE</text>
  </g>
  
  <!-- Decorative Elements -->
  <g transform="translate(600, 400)">
    <!-- Comb -->
    <rect x="0" y="20" width="80" height="8" fill="#000000"/>
    <rect x="0" y="20" width="4" height="40" fill="#000000"/>
    <rect x="8" y="20" width="4" height="35" fill="#000000"/>
    <rect x="16" y="20" width="4" height="40" fill="#000000"/>
    <rect x="24" y="20" width="4" height="35" fill="#000000"/>
    <rect x="32" y="20" width="4" height="40" fill="#000000"/>
    <rect x="40" y="20" width="4" height="35" fill="#000000"/>
    <rect x="48" y="20" width="4" height="40" fill="#000000"/>
    <rect x="56" y="20" width="4" height="35" fill="#000000"/>
    <rect x="64" y="20" width="4" height="40" fill="#000000"/>
    <rect x="72" y="20" width="4" height="35" fill="#000000"/>
    
    <!-- Razor -->
    <g transform="translate(0, 80)">
      <rect x="10" y="0" width="60" height="6" fill="#000000"/>
      <rect x="0" y="6" width="80" height="12" fill="#000000"/>
      <rect x="35" y="18" width="10" height="30" fill="#000000"/>
    </g>
  </g>
  
  <!-- Subtle Pattern -->
  <defs>
    <pattern id="dots" x="0" y="0" width="40" height="40" patternUnits="userSpaceOnUse">
      <circle cx="20" cy="20" r="1" fill="#333333" opacity="0.1"/>
    </pattern>
  </defs>
  <rect width="1024" height="1024" fill="url(#dots)"/>
</svg>